<svg xmlns="http://www.w3.org/2000/svg" width="28" height="27" viewBox="0 0 28 27" fill="none">
  <g clip-path="url(#clip0_1458_31222)">
    <path d="M16.2104 7.3689H14.7369V8.84246H13.2633V7.3689H11.7897V8.84246H10.3162V10.3166H8.84204V11.7902H10.3162V13.2637H11.7897V14.7373H13.2633H14.7369V13.2637H16.2104V11.7902H17.6846V10.3166V8.84246V7.3689H16.2104Z" fill="#E82124"/>
    <path d="M17.6846 7.36926V8.84283V10.317V11.7905H19.1581V10.317V8.84283V7.36926H17.6846Z" fill="#781615"/>
    <path d="M17.684 11.7905H16.2104V13.2641H17.684V11.7905Z" fill="#781615"/>
    <path d="M16.2106 13.264H14.7371V14.7376H16.2106V13.264Z" fill="#781615"/>
    <path d="M14.737 14.7375H13.2634V16.2111H14.737V14.7375Z" fill="#781615"/>
    <path d="M17.6845 7.36834H19.1581V5.89478H17.6845H16.2104H14.7368V7.36834H16.2104H17.6845Z" fill="#020202"/>
    <path d="M19.158 8.84185V10.316V11.7895H20.6315V10.316V8.84185V7.36829H19.158V8.84185Z" fill="#020202"/>
    <path d="M19.1581 11.7897H17.6846V13.2632H19.1581V11.7897Z" fill="#020202"/>
    <path d="M17.684 13.2632H16.2104V14.7367H17.684V13.2632Z" fill="#020202"/>
    <path d="M16.2104 14.7368H14.7368V16.2104H16.2104V14.7368Z" fill="#020202"/>
    <path d="M11.7897 7.36834H13.2633V5.89478H11.7897H10.3162H8.84204V7.36834H10.3162H11.7897Z" fill="#020202"/>
    <path d="M8.84197 8.84185V7.36829H7.36841V8.84185V10.316V11.7895H8.84197V10.316V8.84185Z" fill="#020202"/>
    <path d="M10.3156 11.7897H8.84204V13.2632H10.3156V11.7897Z" fill="#020202"/>
    <path d="M11.7897 13.2632H10.3162V14.7367H11.7897V13.2632Z" fill="#020202"/>
    <path d="M13.2631 14.7368H11.7896V16.2104H13.2631V14.7368Z" fill="#020202"/>
    <path d="M14.7367 16.2103H13.2632V17.6839H14.7367V16.2103Z" fill="#020202"/>
    <path d="M14.7367 7.36829H13.2632V8.84185H14.7367V7.36829Z" fill="#020202"/>
    <path d="M1.47357 16.2105V14.7369V13.2633V11.7898V10.3162V8.84209V7.36852V5.89496V4.42139V2.94727H0V4.42139V5.89496V7.36852V8.84209V10.3162V11.7898V13.2633V14.7369V16.2105V17.6846V19.1582H1.47357V17.6846V16.2105Z" fill="#020202"/>
    <path d="M26.5264 2.94727V4.42139V5.89496V7.36852V8.84209V10.3162V11.7898V13.2633V14.7369V16.2105V17.6846V19.1582H27.9999V17.6846V16.2105V14.7369V13.2633V11.7898V10.3162V8.84209V7.36852V5.89496V4.42139V2.94727H26.5264Z" fill="#020202"/>
    <path d="M2.9472 1.47351H1.47363V2.94708H2.9472V1.47351Z" fill="#020202"/>
    <path d="M26.5265 1.47351H25.053V2.94708H26.5265V1.47351Z" fill="#020202"/>
    <path d="M5.89472 1.47357H7.36828H8.84185H10.316H11.7895H13.2631H14.7367H16.2102H17.6844H19.1579H20.6315H22.1051H23.5792H25.0528V0H23.5792H22.1051H20.6315H19.1579H17.6844H16.2102H14.7367H13.2631H11.7895H10.316H8.84185H7.36828H5.89472H4.42115H2.94702V1.47357H4.42115H5.89472Z" fill="#020202"/>
    <path d="M26.5265 19.158H25.053V20.6315H26.5265V19.158Z" fill="#020202"/>
    <path d="M2.9472 19.158H1.47363V20.6315H2.9472V19.158Z" fill="#020202"/>
    <path d="M22.1051 20.6317H20.6316H19.158H17.6844H16.2103H14.7367H13.2632V22.1053H14.7367H16.2103H17.6844H19.158H20.6316H22.1051H23.5793H25.0528V20.6317H23.5793H22.1051Z" fill="#020202"/>
    <path d="M11.7897 23.5794H10.3162V25.0529H11.7897V26.3923H13.2633V25.0529V24.9188V23.5794V22.1052H11.7897V23.5794Z" fill="#020202"/>
    <path d="M10.3156 22.1052H8.84204V23.5788H10.3156V22.1052Z" fill="#020202"/>
    <path d="M7.36828 20.6317H5.89472H4.42115H2.94702V22.1053H4.42115H5.89472H7.36828H8.84185V20.6317H7.36828Z" fill="#020202"/>
    <path d="M8.84204 10.3163H10.3162V8.84222H11.7897V7.36865H10.3162H8.84204V8.84222V10.3163Z" fill="white"/>
    <path d="M23.5794 1.47375H22.1058H20.6322H19.1587H17.6851H16.2115H14.738H13.2644H11.7908H10.3173H8.84371H7.37014H5.89658H4.42133H2.9472V2.94732H1.47363V4.42089V5.89445V7.36802V8.84158V10.3152V11.7887V13.2623V14.7358V16.2094V17.683V19.1565H2.9472H4.42076H5.89433H7.3679H8.84146V20.6301H10.315V22.1037H11.7886V20.6301H13.2622V19.1565H14.7357H16.2093H17.6829H19.1564H20.63H22.1036H23.5771H25.0507V17.683V16.2094V14.7358V13.2623V11.7887V10.3152V8.84158V7.36802V5.89445V4.42145V2.94732V1.47375H23.5794ZM13.2633 17.6847V16.2111H11.7897V14.7375H10.3162V13.264H8.84259V11.7904H7.36902V10.3168V8.84327V7.3697H8.84259V5.89614H10.3162H11.7897H13.2633V7.3697H14.7368V5.89614H16.2104H17.684H19.1575V7.3697H20.6311V8.84327V10.3168V11.7904H19.1575V13.264H17.684V14.7375H16.2104V16.2111H14.7368V17.6847H13.2633Z" fill="white"/>
    <path d="M25.0527 2.94678V4.4209V5.89447V7.36804V8.8416V10.3157V11.7893V13.2629V14.7364V16.21V17.6841V19.1577H26.5263V17.6841V16.21V14.7364V13.2629V11.7893V10.3157V8.8416V7.36804V5.89447V4.4209V2.94678H25.0527Z" fill="#D8D6D6"/>
    <path d="M7.36828 19.1577H5.89472H4.42115H2.94702V20.6313H4.42115H5.89472H7.36828H8.84185V19.1577H7.36828Z" fill="#D8D6D6"/>
    <path d="M10.3154 20.6312H8.8418V22.1048H10.3154V20.6312Z" fill="#D8D6D6"/>
    <path d="M11.7895 22.1047H10.3159V23.5783H11.7895V22.1047Z" fill="#D8D6D6"/>
    <path d="M13.2631 20.6312H11.7896V22.1048H13.2631V20.6312Z" fill="#D8D6D6"/>
    <path d="M22.1051 19.1577H20.6316H19.158H17.6844H16.2103H14.7367H13.2632V20.6313H14.7367H16.2103H17.6844H19.158H20.6316H22.1051H23.5793H25.0528V19.1577H23.5793H22.1051Z" fill="#D8D6D6"/>
  </g>
  <defs>
    <clipPath id="clip0_1458_31222">
      <rect width="28" height="26.3923" fill="white"/>
    </clipPath>
  </defs>
</svg>
