<svg xmlns="http://www.w3.org/2000/svg" width="63" height="63" viewBox="0 0 63 63" fill="none">
  <path fill-rule="evenodd" clip-rule="evenodd" d="M39.5 0H24.5V2H18.5V4H14.5V6H12.5V8H10.5V10H8.5V12H6.5V16H4.5V20H2.5V24H0.5V38H2.5V44H4.5V48H6.5V51H8.5V53H10.5V55H12.5V57H16.5V59H20.5V61H24.5V63H39.5V61H44.5V59H48.5V57H50.5V55H52.5V53H54.5V51H56.5V48H58.5V44H60.5V39H62.5V23H60.5V18H58.5V14H56.5V12H54.5V10H53.5V8H51.5V6H49.5V4H45.5V2H39.5V0Z" fill="#FF8CE8"/>
  <path fill-rule="evenodd" clip-rule="evenodd" d="M39.5 0H24.5V2H18.5V4H14.5V6H12.5V8H10.5V10H8.5V12H6.5V16H4.5V20H2.5V24H0.5V38H2.5V44H4.5V48H6.5V51H8.5V53H10.5V55H12.5V57H16.5V59H20.5V61H24.5V63H39.5V61H44.5V59H48.5V57H50.5V55H52.5V53H54.5V51H56.5V48H58.5V44H60.5V39H62.5V23H60.5V18H58.5V14H56.5V12H54.5V10H53.5V8H51.5V6H49.5V4H45.5V2H39.5V0ZM39.5 2V4H45.5V6H47.5V8H51.5V10H52.5V12H54.5V14H56.5V18H58.5V23H60.5V39H58.5V44H56.5V46H54.5V51H52.5V53H50.5V55H47.5V57H44.5V59H39.5V61H24.5V59H20.5V57H16.5V55H12.5V53H10.5V51H8.5V48H6.5V44H4.5V38H2.5V24H4.5V20H6.5V16H8.5V12H10.5V10H12.5V8H16.5V6H18.5V4H24.5V2H39.5Z" fill="black"/>
  <path fill-rule="evenodd" clip-rule="evenodd" d="M25.5001 14H22.5001V16H20.5001V26H22.5001V28H25.5001V26H27.5001V16H25.5001V14ZM40.5001 14H37.5001V16H35.5001V26H37.5001V28H40.5001V26H42.5001V16H40.5001V14ZM45.5 49H47.5V43H45.5V40H43.5L43.5 38H41.5V36H38.5V34L25.5 34V36H22.5V38H20.5V40H18.5L18.5 43H16.5V49H18.5L18.5 43H20.5L20.5 40H22.5V38H25.5V36L38.5 36V38H41.5L41.5 40H43.5V43H45.5V49Z" fill="black"/>
</svg>
