<svg xmlns="http://www.w3.org/2000/svg" width="19" height="17" viewBox="0 0 19 17" fill="none">
  <path d="M14.7775 2.16687H16.8888V0.0556641H14.7775H12.6666H10.5554V2.16687H12.6666H14.7775Z" fill="white"/>
  <path d="M16.8888 2.1665V4.27742V6.38863V8.49984H19V6.38863V4.27742V2.1665H16.8888Z" fill="white"/>
  <path d="M16.8888 8.5H14.7776V10.6112H16.8888V8.5Z" fill="white"/>
  <path d="M14.7778 10.6108H12.6666V12.722H14.7778V10.6108Z" fill="white"/>
  <path d="M12.6666 12.7222H10.5554V14.8334H12.6666V12.7222Z" fill="white"/>
  <path d="M6.33333 2.16687H8.44425V0.0556641H6.33333H4.22213H2.11121V2.16687H4.22213H6.33333Z" fill="white"/>
  <path d="M2.11121 4.27742V2.1665H0V4.27742V6.38863V8.49984H2.11121V6.38863V4.27742Z" fill="white"/>
  <path d="M4.22241 8.5H2.11121V10.6112H4.22241V8.5Z" fill="white"/>
  <path d="M6.33325 10.6108H4.22205V12.722H6.33325V10.6108Z" fill="white"/>
  <path d="M8.44458 12.7222H6.33337V14.8334H8.44458V12.7222Z" fill="white"/>
  <path d="M10.5554 14.833H8.44421V16.9442H10.5554V14.833Z" fill="white"/>
  <path d="M10.5554 2.1665H8.44421V4.27771H10.5554V2.1665Z" fill="white"/>
  <path d="M8.44425 12.722V14.8329H10.5555V12.722H12.6667V10.6108H14.7776V8.49984H16.8888V6.38863V4.27742V2.1665H14.7776H12.6667H10.5555V4.27742H8.44425V2.1665H6.33333H4.22213H2.11121V4.27742V6.38863V8.49984H4.22213V10.6108H6.33333V12.722H8.44425Z" fill="black"/>
</svg>
