<svg width="37" height="28" viewBox="0 0 37 28" fill="none" xmlns="http://www.w3.org/2000/svg">
<g id="Frame 28">
<g id="Group 61">
<path id="Union" fill-rule="evenodd" clip-rule="evenodd" d="M31.4623 25.5303V5.76555H29.8153V4.53026H26.1094V2.47144H19.9329V4.11849H17.0506V5.76555H14.9917V7.41261H11.6976V9.05967H10.4623V7.41261H8.40349V10.295H14.9917V21.8244H11.6976V23.8832H10.0506V21.8244H8.40349V25.5303H16.6388V23.4714H19.5211V21.8244H26.1094V23.4714H29.8153V25.5303H31.4623ZM5.10938 5.76555H6.75643V9.05967H5.10938V5.76555ZM6.75643 20.5891H5.10938V23.8832H6.75643V20.5891Z" fill="black"/>
<path id="Union_2" fill-rule="evenodd" clip-rule="evenodd" d="M6.75643 10.707H5.10938V14.0011H6.75643V10.707ZM8.40349 11.9423V15.6482H14.9917V11.9423H11.6976V14.0011H10.0506V11.9423H8.40349Z" fill="#E73223"/>
<path id="Union_3" fill-rule="evenodd" clip-rule="evenodd" d="M6.75643 15.6482H5.10938V18.9423H6.75643V15.6482ZM8.40349 16.4717V20.1776H14.9917V16.4717H11.6976V18.5305H10.0506V16.4717H8.40349Z" fill="#0021ED"/>
<path id="Vector 19" d="M21.5796 10.7068V6.17739V5.76562H19.5207V7.41268H17.4619V12.3539H19.109V10.7068H21.5796Z" fill="#E93223"/>
<path id="Vector 21" d="M24.0503 10.7068V6.17739V5.76562H26.1091V7.41268H28.168V12.3539H26.5209V10.7068H24.0503Z" fill="#75F94C"/>
<path id="Vector 20" d="M21.5796 18.9422V14.4127V14.001H19.5207V15.648H17.4619V20.5892H19.109V18.9422H21.5796Z" fill="#0021EE"/>
<path id="Vector 22" d="M24.0503 18.9422V14.4127V14.001H26.1091V15.648H28.168V20.5892H26.5209V18.9422H24.0503Z" fill="#FFFD54"/>
</g>
</g>
</svg>
