<?xml version="1.0" standalone="no"?>
<svg version="1.0" xmlns="http://www.w3.org/2000/svg"
 width="1101.000000pt" height="1901.000000pt" viewBox="0 0 1101.000000 1901.000000"
 preserveAspectRatio="xMidYMid meet">

<g transform="translate(0.000000,1901.000000) scale(0.100000,-0.100000)"
fill="white" stroke="none">
<path d="M10 17500 l0 -1500 500 0 500 0 0 -2500 0 -2500 500 0 500 0 0 -500
0 -500 500 0 500 0 0 -1000 0 -1000 -500 0 -500 0 0 -500 0 -500 -500 0 -500
0 0 -2000 0 -2000 -500 0 -500 0 0 -1500 0 -1500 5500 0 5500 0 0 1500 0 1500
-500 0 -500 0 0 2000 0 2000 -500 0 -500 0 0 500 0 500 -500 0 -500 0 0 1000
0 1000 500 0 500 0 0 500 0 500 500 0 500 0 0 2500 0 2500 500 0 500 0 0 1500
0 1500 -5500 0 -5500 0 0 -1500z m9000 0 l0 -500 -3500 0 -3500 0 0 500 0 500
3500 0 3500 0 0 -500z m0 -3500 l0 -2000 -500 0 -500 0 0 -500 0 -500 -500 0
-500 0 0 -500 0 -500 -500 0 -500 0 0 -1000 0 -1000 500 0 500 0 0 -500 0
-500 500 0 500 0 0 -500 0 -500 500 0 500 0 0 -1500 0 -1500 -500 0 -500 0 0
500 0 500 -500 0 -500 0 0 -500 0 -500 -500 0 -500 0 0 500 0 500 -500 0 -500
0 0 -500 0 -500 -500 0 -500 0 0 500 0 500 -500 0 -500 0 0 -500 0 -500 -500
0 -500 0 0 1500 0 1500 500 0 500 0 0 500 0 500 500 0 500 0 0 500 0 500 500
0 500 0 0 1000 0 1000 -500 0 -500 0 0 500 0 500 -500 0 -500 0 0 500 0 500
-500 0 -500 0 0 2000 0 2000 3500 0 3500 0 0 -2000z m0 -12500 l0 -500 -3500
0 -3500 0 0 500 0 500 3500 0 3500 0 0 -500z"/>
<path d="M3010 13500 l0 -500 500 0 500 0 0 -500 0 -500 500 0 500 0 0 -500 0
-500 500 0 500 0 0 500 0 500 500 0 500 0 0 500 0 500 500 0 500 0 0 500 0
500 -500 0 -500 0 0 -500 0 -500 -500 0 -500 0 0 500 0 500 -500 0 -500 0 0
-500 0 -500 -500 0 -500 0 0 500 0 500 -500 0 -500 0 0 -500z m3000 -1000 l0
-500 -500 0 -500 0 0 500 0 500 500 0 500 0 0 -500z"/>
<path d="M5010 5500 l0 -500 -500 0 -500 0 0 -500 0 -500 500 0 500 0 0 500 0
500 500 0 500 0 0 -500 0 -500 500 0 500 0 0 500 0 500 -500 0 -500 0 0 500 0
500 -500 0 -500 0 0 -500z"/>
</g>
</svg>
