<svg xmlns="http://www.w3.org/2000/svg" width="19" height="18" viewBox="0 0 19 18" fill="none">
  <path d="M4.38464 4.5V5.99989H5.84608H7.30752V4.5H5.84608H4.38464Z" fill="white"/>
  <path d="M13.1539 4.5H11.6921V5.99989H13.1539H14.6153V4.5H13.1539Z" fill="white"/>
  <path d="M4.38465 6H2.92322V7.49989H4.38465V6Z" fill="#FC5E6E"/>
  <path d="M11.6922 7.5V9.00023H10.2307V10.5001H8.76928V9.00023H7.30751V7.5H5.84608H4.38464V9.00023H5.84608V10.5001H7.30751V12H8.76928V13.5002H10.2307V12H11.6922V10.5001H13.1539V9.00023H14.6154V7.5H13.1539L11.6922 7.5Z" fill="#FC5E6E"/>
  <path d="M16.0768 6H14.6154V7.49989H16.0768V6Z" fill="#FC5E6E"/>
  <path d="M5.84609 4.49989H7.30752V3L5.84609 3H4.38465H2.92322V4.49989V5.99977H4.38465V4.49989H5.84609Z" fill="#FC8193"/>
  <path d="M11.6922 5.99989V4.5H10.2307H8.76928H7.30751V5.99989H5.84608H4.38464V7.49977H5.84608H7.30751V9H8.76928V10.4999H10.2307V9H11.6922V7.49977H13.1539H14.6154V5.99989L13.1539 5.99989H11.6922Z" fill="#FC8193"/>
  <path d="M14.6153 3H13.1539H11.6921V4.49989H13.1539H14.6153V5.99977H16.0768V4.49989V3L14.6153 3Z" fill="#FC8193"/>
  <path d="M8.76893 3H7.3075V4.49989H8.76893V3Z" fill="#E82124"/>
  <path d="M5.84609 3.00023H7.30752V1.5H5.84609L4.38465 1.5H2.92322V3.00023H4.38465H5.84609Z" fill="#E82124"/>
  <path d="M11.6921 3H10.2307V4.49989H11.6921V3Z" fill="#E82124"/>
  <path d="M16.0768 3V4.49989V5.99977V7.49966H14.6153V8.99989H13.1539V10.4998H11.6921V11.9997H10.2307V13.4999H8.76927V11.9997H7.3075L7.3075 10.4998H5.84607V8.99989H4.38463V7.49966H2.9232V5.99977V4.49989V3H1.46143V4.49989L1.46143 5.99977V7.49966V8.99989H2.9232L2.9232 10.4998H4.38463V11.9997H5.84607V13.4999H7.3075V14.9998H8.76927V16.4997H10.2307V14.9998H11.6921V13.4999H13.1539V11.9997H14.6153V10.4998H16.0768V8.99989H17.5382V7.49966V5.99977V4.49989V3H16.0768Z" fill="#E82124"/>
  <path d="M14.6153 1.5L13.1539 1.5H11.6921V3.00023H13.1539H14.6153H16.0768V1.5H14.6153Z" fill="#E82124"/>
  <path d="M5.84609 1.49989H7.30752V0L5.84609 0L4.38465 0L2.92322 0V1.49989H4.38465L5.84609 1.49989Z" fill="#781615"/>
  <path d="M8.76893 1.49951H7.3075V2.9994H8.76893V1.49951Z" fill="#781615"/>
  <path d="M10.2307 3H8.76929V4.49989H10.2307V3Z" fill="#781615"/>
  <path d="M1.46144 5.99977L1.46144 4.49989V3H0L0 4.49989L0 5.99977L0 7.49966L0 8.99989H1.46144V7.49966V5.99977Z" fill="#781615"/>
  <path d="M2.92286 9H1.46143V10.4999H2.92286V9Z" fill="#781615"/>
  <path d="M4.38465 10.4995H2.92322V11.9994H4.38465V10.4995Z" fill="#781615"/>
  <path d="M5.84608 11.9995H4.38464V13.4994H5.84608V11.9995Z" fill="#781615"/>
  <path d="M7.30751 13.5H5.84607V14.9999H7.30751V13.5Z" fill="#781615"/>
  <path d="M8.76893 14.9995H7.3075V16.4994H8.76893V14.9995Z" fill="#781615"/>
  <path d="M10.2307 16.4995H8.76929V17.9994H10.2307V16.4995Z" fill="#781615"/>
  <path d="M2.92286 1.49951H1.46143V2.9994H2.92286V1.49951Z" fill="#781615"/>
  <path d="M14.6153 1.49989H16.0768V0L14.6153 0L13.1539 0L11.6921 0V1.49989H13.1539L14.6153 1.49989Z" fill="#781615"/>
  <path d="M11.6921 1.49951H10.2307V2.9994H11.6921V1.49951Z" fill="#781615"/>
  <path d="M17.5382 3V4.49989V5.99977V7.49966V8.99989H19V7.49966V5.99977V4.49989V3H17.5382Z" fill="#781615"/>
  <path d="M17.5382 9H16.0768V10.4999H17.5382V9Z" fill="#781615"/>
  <path d="M16.0768 10.4995H14.6154V11.9994H16.0768V10.4995Z" fill="#781615"/>
  <path d="M14.6154 11.9995H13.1539V13.4994H14.6154V11.9995Z" fill="#781615"/>
  <path d="M13.1536 13.5H11.6921V14.9999H13.1536V13.5Z" fill="#781615"/>
  <path d="M11.6921 14.9995H10.2307V16.4994H11.6921V14.9995Z" fill="#781615"/>
  <path d="M17.5382 1.49951H16.0768V2.9994H17.5382V1.49951Z" fill="#781615"/>
</svg>
